<?xml version="1.0" encoding="utf-8"?>
<!-- Generator: Adobe Illustrator 21.1.0, SVG Export Plug-In . SVG Version: 6.00 Build 0)  -->
<svg version="1.1" id="Layer_1" xmlns="http://www.w3.org/2000/svg" xmlns:xlink="http://www.w3.org/1999/xlink" x="0px" y="0px"
	 viewBox="0 0 480.9 500" style="enable-background:new 0 0 480.9 500;" xml:space="preserve">
<style type="text/css">
	.st0{fill:#FBF1A9;}
</style>
<path class="st0" d="M388.5,108.3c-6.1-28.1-20.4-52.6-41.9-72C321.1,12.8,287.9,0,253.2,0c-26.6,0-52.6,7.7-75.1,22
	c-16.3,10.7-30.6,24.5-40.9,40.9C89.8,58.2,48.9,96,48.9,143c0,3.1,0,6.6,0.5,9.7c-24.5,20.4-38.8,51.1-38.8,82.7
	c0,27.6,10.2,54.6,29.1,76.1c19.4,22,45.4,34.7,72.5,36.3h0.5h52.6v57.7c0,6.1-5.1,11.2-11.2,11.2h-24c-5.6-13.8-19.4-23-34.2-23
	c-20.4,0-37.3,16.9-37.3,37.3s16.9,37.3,37.3,37.3c15.3,0,28.6-9.2,34.2-23h24c22,0,39.8-17.9,39.8-39.8v-57.7h22v80.2
	c-13.3,5.6-22.5,18.9-23,33.2c0,10.2,3.6,19.4,10.2,26.6c7.1,7.1,16.3,11.2,26,11.7h0.5c19.9,0,36.8-16.3,37.3-36.3
	c0-10.2-3.6-19.4-10.2-26.6c-3.6-3.6-7.7-6.6-12.8-8.7v-80.2h22.5v57.7c0,22,17.9,39.8,39.8,39.8h24c5.6,13.8,19.4,23,34.2,23
	c20.4,0,37.3-16.9,37.3-37.3s-16.9-37.3-37.3-37.3c-15.3,0-28.6,9.2-34.2,23h-24c-6.1,0-11.2-5.1-11.2-11.2v-57.7h63.3
	c0.5,0,0.5,0,1,0c30.6-2,58.7-16.3,79.7-39.3c20.9-23,32.2-52.6,32.2-83.2C471.3,172.6,437,124.6,388.5,108.3z M95.4,439.7
	c-4.6,0-8.7-3.6-8.7-8.7c0-4.6,3.6-8.7,8.7-8.7c4.6,0,8.7,3.6,8.7,8.7C104.1,436.1,100.5,439.7,95.4,439.7z M230.2,470.8v5.1V470.8
	c-2.6,0-4.6-1-6.1-2.6s-2.6-4.1-2.6-6.1c0-4.6,4.1-8.2,8.7-8.2c2,0,4.1,1,5.6,2.6c1.5,1.5,2.6,4.1,2.6,6.1
	C238.4,466.7,234.8,470.8,230.2,470.8z M365,422.8c4.6,0,8.7,3.6,8.7,8.7c0,4.6-3.6,8.7-8.7,8.7c-5.1,0-8.7-3.6-8.7-8.7
	C356.4,426.4,359.9,422.8,365,422.8z"/>
</svg>
