<?xml version="1.0" encoding="utf-8"?>
<!-- Generator: Adobe Illustrator 21.1.0, SVG Export Plug-In . SVG Version: 6.00 Build 0)  -->
<svg version="1.1" id="Layer_1" xmlns="http://www.w3.org/2000/svg" xmlns:xlink="http://www.w3.org/1999/xlink" x="0px" y="0px"
	 viewBox="0 0 480.9 500" style="enable-background:new 0 0 480.9 500;" xml:space="preserve">
<path d="M421.8,10.2H59.1C26.4,10.2,0,36.6,0,69.2v360.3c0,32.6,26.4,59.1,59.1,59.1h362.7c32.6,0,59.1-26.4,59.1-59.1V69.2
	C480.8,36.6,454.4,10.2,421.8,10.2z M56.2,286.1c0-15.8,0-31.6,0-47.4c0-6,3.2-9.4,9.2-9.4c28.5,0,57.1,0,85.6,0
	c0.3,0,0.7,0.1,1.6,0.2c-0.7,1.3-1.1,2.3-1.7,3.3c-11.6,20.2-23.3,40.3-34.9,60.5c-1.1,2-2.4,2.8-4.8,2.8c-15.1-0.1-30.2,0-45.4-0.1
	C59.3,295.9,56.2,292.8,56.2,286.1z M119.4,389.7c-9.5,6.6-19.1,13-28.7,19.4c-1.1,0.7-3.1,1.1-4,0.6c-1.1-0.6-1.5-2.5-1.8-3.1
	c1.4-12.1,2.7-23.3,4.1-34.4c0.5-4.1,3.8-5.9,7.5-3.9c7.7,4.2,15.2,8.5,22.7,13C122.8,383.6,122.9,387.3,119.4,389.7z M129,372.6
	c-0.7-0.2-2.3-0.6-3.6-1.3c-6.9-3.9-13.8-7.8-20.7-11.8c-5-2.9-6.2-7.4-3.3-12.4c33.4-57.9,66.7-115.7,100.1-173.6
	c3-5.2,7.4-6.4,12.7-3.5c6.7,3.8,13.4,7.6,20.1,11.5c5.4,3.1,6.6,7.5,3.4,12.9c-33.3,57.8-66.6,115.5-99.9,173.3
	C136.1,370.7,133.6,372.6,129,372.6z M203.1,295.7c0.7-1.2,1.2-2.2,1.7-3.2c11.6-20.1,23.2-40.1,34.7-60.2c1.4-2.4,2.9-3.2,5.6-3.1
	c5.3,0.2,10.7,0,16,0.1c1.1,0,2.7,0.9,3.1,1.8c10.1,21.2,20,42.5,29.9,63.8c0.1,0.2,0,0.4,0,0.8
	C263.9,295.7,233.6,295.7,203.1,295.7z M324.4,311.6c-4.7-8.4-9.7-16.7-13.9-25.4c-26.4-54.5-50.5-109.9-73.6-165.8
	c-3.3-7.9-5.2-16.4-7.7-24.7c-0.4-1.5-0.5-3.1-0.5-3.7c0-1.7-0.2-2.4,0-3c0.6-1.5,1-3.5,2.2-4.2c0.8-0.5,3.1,0.5,4.1,1.5
	c3.1,3.3,6.3,6.6,8.7,10.4c8.7,13.7,16.9,27.7,25.5,41.5c31.5,50.5,59.5,103,87.1,155.7c3.3,6.3,2.9,11.1-2.4,15.9
	c-5.6,5.1-12,9.1-20.2,7.9C329.7,317.2,326.4,315.3,324.4,311.6z M356.8,361.9c-4.6-6.9-9-13.9-13.3-21c-2.8-4.6-1.4-9.2,3.4-11.8
	c4-2.2,8-4.2,12.1-6.2c4.8-2.3,9.8-0.9,12.3,3.7c3.7,6.7,7.1,13.4,10.5,20.2c0.6,1.3,0.9,2.8,1.2,3.6c-0.2,4.1-1.5,7-4.6,8.9
	c-3,1.9-6,3.7-9.1,5.4C364.7,367.4,359.7,366.3,356.8,361.9z M392.8,407.2c-4.3-2.2-8.9-4.1-13.1-6.5c-5.3-3.1-9.1-7.8-11.3-13.6
	c-2.3-6.4-0.3-13.3,5.6-16.6c3.4-1.9,7.3-3.3,11.1-3.9c6.3-1,11.4,1.9,14,7.5c2.4,5.2,4.3,10.8,5.1,16.4c1.1,7.9,1.1,16,1.5,23.9
	C400.9,411.5,396.9,409.3,392.8,407.2z M424.6,286.2c0,6.5-3.2,9.7-9.5,9.7c-14.2,0-28.4,0-41.8,0c-11.9-22.5-23.3-44.2-35.1-66.5
	c1.5-0.1,2.6-0.2,3.6-0.2c24.2,0,48.4,0,72.7,0c7,0,10.1,3.2,10.1,10.2C424.6,255,424.6,270.6,424.6,286.2z"/>
</svg>
