<?xml version="1.0" encoding="utf-8"?>
<!-- Generator: Adobe Illustrator 21.1.0, SVG Export Plug-In . SVG Version: 6.00 Build 0)  -->
<svg version="1.1" id="Layer_1" xmlns="http://www.w3.org/2000/svg" xmlns:xlink="http://www.w3.org/1999/xlink" x="0px" y="0px"
	 viewBox="0 0 480.9 500" style="enable-background:new 0 0 480.9 500;" xml:space="preserve">
<style type="text/css">
	.st0{fill:#FBF1A9;}
</style>
<g>
	<g>
		<path class="st0" d="M294.2,298.8H187.6c-7.8,0-14.6,5.7-14.6,13.1v175c0,7.3,6.3,13.1,14.6,13.1h106.6c7.8,0,14.6-5.7,14.6-13.1
			V312.4C308.8,304.6,302.6,298.8,294.2,298.8z M240.9,495.3c-4.7,0-8.4-3.7-8.4-7.8c0-4.7,3.7-7.8,8.4-7.8c4.7,0,8.4,3.7,8.4,7.8
			C249.8,491.6,245.6,495.3,240.9,495.3z M293.2,477h-104V322.3h104V477z"/>
		<path class="st0" d="M422.7,135.3L244.6,2.6c-4.7-3.7-11-3.1-15.2,0L59.1,135.3c-4.7,3.7-5.2,10.5-1.6,14.6s9.9,4.2,14.1,1
			l2.1-1.6v189.7c0,9.9,8.4,18.3,18.3,18.3h67.9v-47.6c0-14.6,12-26.1,26.1-26.1h109.7c14.6,0,26.1,12,26.1,26.1v47.6h65.3
			c9.9,0,18.3-8.4,18.3-18.3V148.3l4.7,3.7c4.7,3.1,11,2.6,14.6-2.1C428.5,145.2,427.4,138.9,422.7,135.3z M275.9,255.5
			c-1.6,1.6-3.7,2.6-5.7,2.6c-2.1,0-3.7-0.5-5.2-2.1c-2.6-2.6-10.5-8.9-21.9-9.4c-13.6-0.5-23,7.3-25.6,9.4c-3.1,3.1-8.4,2.6-11-0.5
			c-3.1-3.1-2.6-8.4,0.5-11c4.7-4.2,17.8-14.6,36.6-13.6c16.7,0.5,28.2,9.9,32.4,13.6C278.5,247.1,278.5,252.3,275.9,255.5z
			 M307.8,232.5c-1.6,1.6-3.7,2.1-5.7,2.1c-2.1,0-4.2-0.5-5.7-2.1c-6.8-6.8-25.6-22.5-54.3-23c-31.4-0.5-52.3,17.8-57.5,23
			c-3.1,3.1-7.8,3.1-11,0c-3.1-3.1-3.1-7.8,0-11c6.8-6.8,31.9-28.7,69-27.7c34,0.5,56.4,19.3,64.8,27.7
			C310.9,224.1,310.9,229.3,307.8,232.5z M337.6,213.7c-3.1,3.1-7.8,2.6-11,0c-10.5-11-38.7-36.1-82.6-37.1
			c-48.6-1-80.5,28.2-88.8,37.1c-1.6,1.6-3.7,2.6-5.7,2.6c-2.1,0-3.7-0.5-5.2-2.1c-3.1-3.1-3.1-7.8-0.5-11
			c9.9-10.5,46-43.4,100.8-41.8c49.6,1.6,82,29.8,93.5,41.8C341.2,205.8,340.7,211,337.6,213.7z"/>
	</g>
</g>
</svg>
