<?xml version="1.0" encoding="utf-8"?>
<!-- Generator: Adobe Illustrator 21.1.0, SVG Export Plug-In . SVG Version: 6.00 Build 0)  -->
<svg version="1.1" id="Layer_1" xmlns="http://www.w3.org/2000/svg" xmlns:xlink="http://www.w3.org/1999/xlink" x="0px" y="0px"
	 viewBox="0 0 480.9 500" style="enable-background:new 0 0 480.9 500;" xml:space="preserve">
<style type="text/css">
	.st0{fill:#FBF1A9;}
</style>
<rect x="61.1" y="378.3" class="st0" width="359.5" height="51.2"/>
<rect x="61.1" y="70" class="st0" width="359.5" height="51.2"/>
<rect x="61.1" y="70" class="st0" width="51.2" height="359.5"/>
<rect x="369.4" y="70" class="st0" width="51.2" height="359.5"/>
<path class="st0" d="M122.2,10.9h51.2v51.2h-51.2V10.9z M185.1,10.9h51.2v51.2h-51.2V10.9z M245.9,10.9h51.2v51.2h-51.2V10.9z
	 M308.3,10.9h51.2v51.2h-51.2V10.9z"/>
<path class="st0" d="M122.2,437.4h51.2v51.2h-51.2V437.4z M185.1,437.4h51.2v51.2h-51.2V437.4z M245.9,437.4h51.2v51.2h-51.2V437.4z
	 M308.3,437.4h51.2v51.2h-51.2V437.4z"/>
<path class="st0" d="M429.9,317.2h51.2v51.2h-51.2V317.2z M429.9,254.3h51.2v51.2h-51.2V254.3z M429.9,193.5h51.2v51.2h-51.2V193.5z
	 M429.9,131.1h51.2v51.2h-51.2V131.1z"/>
<path class="st0" d="M0.4,317.2h51.2v51.2H0.4C0.4,368.4,0.4,317.2,0.4,317.2z M0.4,254.3h51.2v51.2H0.4
	C0.4,305.5,0.4,254.3,0.4,254.3z M0.4,193.5h51.2v51.2H0.4C0.4,244.7,0.4,193.5,0.4,193.5z M0.4,131.1h51.2v51.2H0.4
	C0.4,182.3,0.4,131.1,0.4,131.1z"/>
</svg>
