<?xml version="1.0" encoding="utf-8"?>
<!-- Generator: Adobe Illustrator 21.1.0, SVG Export Plug-In . SVG Version: 6.00 Build 0)  -->
<svg version="1.1" id="Layer_1" xmlns="http://www.w3.org/2000/svg" xmlns:xlink="http://www.w3.org/1999/xlink" x="0px" y="0px"
	 viewBox="0 0 480.9 500" style="enable-background:new 0 0 480.9 500;" xml:space="preserve">
<style type="text/css">
	.st0{fill:#FBF1A9;}
</style>
<path class="st0" d="M327.8,0H151.4c-21.6,0-39.2,17.5-39.2,39.2v421.6c0,21.6,17.5,39.2,39.2,39.2h176.3
	c21.6,0,39.2-17.5,39.2-39.2V39.2C366.9,17.5,349.4,0,327.8,0z M220.3,41.6h38.5c2.9,0,5.2,2.3,5.2,5.2c0,2.9-2.3,5.2-5.2,5.2h-38.5
	c-2.9,0-5.2-2.3-5.2-5.2C215.1,43.9,217.4,41.6,220.3,41.6z M197.9,39.6c3.4,0,6.2,2.8,6.2,6.2s-2.8,6.2-6.2,6.2s-6.2-2.8-6.2-6.2
	C191.7,42.4,194.4,39.6,197.9,39.6z M239.6,478.9c-13.5,0-24.5-11-24.5-24.5c0-13.5,11-24.5,24.5-24.5s24.5,11,24.5,24.5
	C264.1,467.9,253.1,478.9,239.6,478.9z M347.4,412.4H131.9V87.6h215.5V412.4z"/>
</svg>
